<svg id="Layer_1" data-name="Layer 1" xmlns="http://www.w3.org/2000/svg" xmlns:xlink="http://www.w3.org/1999/xlink" viewBox="0 0 565.44 443.62"><defs><style>.cls-1,.cls-6{fill:none;}.cls-2{clip-path:url(#clip-path);}.cls-3{clip-path:url(#clip-path-2);}.cls-4{fill:url(#linear-gradient);}.cls-5{clip-path:url(#clip-path-3);}.cls-6{stroke:#662d91;stroke-miterlimit:10;stroke-width:6.53px;}.cls-7{clip-path:url(#clip-path-4);}.cls-8{fill:url(#linear-gradient-2);}</style><clipPath id="clip-path" transform="translate(-421 -181)"><rect class="cls-1" x="421" y="181" width="631" height="443.62"/></clipPath><clipPath id="clip-path-2" transform="translate(-421 -181)"><path class="cls-1" d="M546.26,348.69A94.67,94.67,0,1,0,640.93,254a94.67,94.67,0,0,0-94.67,94.68"/></clipPath><linearGradient id="linear-gradient" x1="26.17" y1="-18.58" x2="35.47" y2="-18.58" gradientTransform="matrix(20.36, 0, 0, -20.36, -407.53, -210.67)" gradientUnits="userSpaceOnUse"><stop offset="0" stop-color="#662d91"/><stop offset="1"/></linearGradient><clipPath id="clip-path-3" transform="translate(-421 -181)"><rect class="cls-1" x="421" y="181" width="631" height="443.62"/></clipPath><clipPath id="clip-path-4" transform="translate(-421 -181)"><polygon class="cls-1" points="494.01 560.91 787.85 560.91 637.67 443.37 494.01 560.91"/></clipPath><linearGradient id="linear-gradient-2" x1="15.39" y1="-16.31" x2="24.69" y2="-16.31" gradientTransform="matrix(31.6, 0, 0, -31.6, -413.15, -194.17)" xlink:href="#linear-gradient"/></defs><g id="Artwork_1" data-name="Artwork 1"><g class="cls-2"><g class="cls-3"><rect class="cls-4" x="125.26" y="73.01" width="189.34" height="189.35"/></g><g class="cls-5"><path class="cls-6" d="M735.61,348.69A94.68,94.68,0,1,1,640.93,254,94.68,94.68,0,0,1,735.61,348.69Z" transform="translate(-421 -181)"/></g><g class="cls-7"><rect class="cls-8" x="73.01" y="262.37" width="293.84" height="117.54"/></g><g class="cls-5"><polyline class="cls-6" points="73.01 379.9 216.67 262.38 366.85 379.9"/><circle class="cls-6" cx="221.81" cy="221.81" r="218.54"/><polygon points="472.44 234.21 518.94 280.71 565.44 234.21 472.44 234.21"/></g></g></g></svg>