<svg id="Layer_1" data-name="Layer 1" xmlns="http://www.w3.org/2000/svg" xmlns:xlink="http://www.w3.org/1999/xlink" viewBox="0 0 471 471""><defs><style>.cls-1{fill:none;}.cls-2{clip-path:url(#clip-path);}.cls-3{fill:#7530e9;}.cls-4{fill:#4affff;}</style><clipPath id="clip-path" transform="translate(-400 -87)"><rect class="cls-1" x="400" y="87" width="471" height="471"/></clipPath></defs><g id="edit"><g class="cls-2"><g class="cls-2"><path class="cls-3" d="M871,322.5C871,452.57,765.57,558,635.5,558S400,452.57,400,322.5,505.43,87,635.5,87,871,192.43,871,322.5" transform="translate(-400 -87)"/><path class="cls-4" d="M655.45,283.84l12.33,12.33L546.34,417.59H534V405.26L655.45,283.84m52.71-85.15a13.43,13.43,0,0,0-9.38,3.89L674.26,227.1l50.26,50.26L749,252.84a13.36,13.36,0,0,0,0-18.9l-31.35-31.36a13.16,13.16,0,0,0-9.53-3.89M664.38,237,516.16,385.2v50.26h50.26L714.64,287.23Z" transform="translate(-400 -87)"/></g></g></g></svg>