<svg id="Layer_1" data-name="Layer 1" xmlns="http://www.w3.org/2000/svg" xmlns:xlink="http://www.w3.org/1999/xlink" viewBox="0 0 452 452"><defs><style>.cls-1,.cls-5{fill:none;}.cls-2{clip-path:url(#clip-path);}.cls-3{fill:#7530e9;}.cls-4{fill:#4affff;}.cls-5{stroke:#4affff;stroke-miterlimit:10;stroke-width:19.13px;}</style><clipPath id="clip-path" transform="translate(-414 -146)"><rect class="cls-1" x="414" y="146" width="452" height="452"/></clipPath></defs><g id="dropdown"><g class="cls-2"><g class="cls-2"><path class="cls-3" d="M866,372c0,124.82-101.18,226-226,226S414,496.82,414,372,515.18,146,640,146,866,247.18,866,372" transform="translate(-414 -146)"/><path class="cls-4" d="M585.72,345.65l45.63,45.53a14.33,14.33,0,0,0,20.23,0l45.62-45.53a14.31,14.31,0,0,1,20.23,20.25l-65.84,65.86a14.36,14.36,0,0,1-20.25,0L565.49,365.9a14.31,14.31,0,0,1,20.23-20.25" transform="translate(-414 -146)"/><path class="cls-5" d="M585.72,345.65l45.63,45.53a14.33,14.33,0,0,0,20.23,0l45.62-45.53a14.31,14.31,0,0,1,20.23,20.25l-65.84,65.86a14.36,14.36,0,0,1-20.25,0L565.49,365.9a14.31,14.31,0,0,1,20.23-20.25Z" transform="translate(-414 -146)"/></g></g></g></svg>